<?xml version="1.0" standalone="no"?>
<!DOCTYPE svg PUBLIC "-//W3C//DTD SVG 20010904//EN"
 "http://www.w3.org/TR/2001/REC-SVG-20010904/DTD/svg10.dtd">
<svg version="1.0" xmlns="http://www.w3.org/2000/svg"
 width="300.000000pt" height="300.000000pt" viewBox="0 0 300.000000 300.000000"
 preserveAspectRatio="xMidYMid meet">
<metadata>
Created by potrace 1.10, written by Peter Selinger 2001-2011
</metadata>
<g transform="translate(0.000000,300.000000) scale(0.100000,-0.100000)"
fill="#000000" stroke="none">
<path d="M1065 2931 c-44 -26 -83 -76 -94 -119 -5 -20 -33 -322 -62 -670 -56
-678 -56 -675 -8 -736 46 -58 80 -66 289 -66 l190 0 0 -45 0 -46 133 3 132 3
3 43 3 42 179 0 c190 0 218 5 263 48 45 42 57 75 57 149 0 99 -99 1253 -110
1286 -15 46 -49 86 -90 107 -37 19 -60 20 -447 20 -380 0 -410 -1 -438 -19z"/>
<path d="M2208 1669 c-21 -12 -24 -49 -6 -67 7 -7 34 -12 61 -12 l49 0 -4
-172 c-3 -166 -4 -175 -31 -230 -20 -41 -40 -65 -74 -87 -26 -17 -50 -31 -55
-31 -5 0 -21 14 -36 31 -49 60 -44 59 -594 59 -469 0 -506 -2 -544 -19 -24
-11 -50 -33 -63 -55 -25 -40 -36 -43 -89 -20 -47 19 -88 58 -115 109 -20 36
-22 58 -25 223 l-4 182 54 0 c75 0 103 35 60 73 -27 24 -283 25 -306 1 -38
-38 -12 -74 55 -74 l47 0 4 -192 c3 -188 4 -195 31 -250 47 -95 160 -178 242
-178 14 0 31 -13 46 -34 47 -69 74 -76 283 -76 l186 0 0 -93 c0 -101 12 -127
58 -127 20 0 22 -5 22 -54 l0 -53 -254 -92 c-140 -50 -260 -91 -268 -91 -7 0
-28 -9 -46 -20 -119 -73 -82 -248 56 -267 108 -15 194 102 147 201 -10 20 -16
38 -14 40 2 1 51 20 109 41 58 21 140 50 183 66 l77 28 0 -47 c0 -41 -4 -49
-29 -64 -90 -50 -81 -207 13 -252 68 -32 140 -11 188 55 43 58 18 159 -49 201
-29 17 -33 25 -33 65 0 24 4 43 9 41 5 -1 91 -32 191 -68 164 -59 180 -67 174
-85 -4 -11 -9 -41 -11 -66 -14 -137 147 -205 243 -104 79 85 36 210 -83 238
-27 7 -156 50 -286 97 l-237 85 0 58 0 57 33 0 c51 0 57 13 57 117 l0 93 183
0 c100 0 199 5 221 9 43 11 89 50 106 91 8 19 25 33 55 45 63 23 136 93 170
162 29 57 30 62 35 243 l5 185 45 3 c68 5 99 42 64 76 -13 13 -41 16 -152 16
-75 0 -145 -5 -154 -11z"/>
</g>
</svg>
