<?xml version="1.0" standalone="no"?>
<!DOCTYPE svg PUBLIC "-//W3C//DTD SVG 20010904//EN"
 "http://www.w3.org/TR/2001/REC-SVG-20010904/DTD/svg10.dtd">
<svg version="1.0" xmlns="http://www.w3.org/2000/svg"
 width="176.000000pt" height="158.000000pt" viewBox="0 0 176.000000 158.000000"
 preserveAspectRatio="xMidYMid meet">
<metadata>
Created by potrace 1.10, written by Peter Selinger 2001-2011
</metadata>
<g transform="translate(0.000000,158.000000) scale(0.100000,-0.100000)"
fill="#000000" stroke="none">
<path d="M680 1484 c-81 -69 -80 -165 3 -228 24 -18 46 -26 75 -26 36 0 48 6
82 40 37 37 40 44 40 96 0 41 -6 64 -21 85 -44 63 -125 78 -179 33z"/>
<path d="M470 1155 c-62 -16 -61 -11 -9 -250 5 -22 14 -62 19 -90 5 -27 14
-68 19 -90 5 -22 16 -74 25 -116 30 -142 92 -231 193 -275 52 -23 62 -24 241
-22 l187 3 0 65 0 65 -185 5 c-200 5 -213 9 -253 63 -33 44 -43 74 -78 235 -5
23 -13 61 -19 85 -9 37 -25 117 -50 242 -11 53 -28 95 -37 94 -5 -1 -28 -7
-53 -14z"/>
<path d="M785 1153 c-34 -9 -63 -33 -79 -68 -26 -54 -26 -53 46 -345 31 -125
41 -156 62 -175 42 -39 48 -40 224 -45 l175 -5 32 -100 c18 -55 47 -146 65
-203 18 -56 36 -105 40 -107 13 -8 109 27 114 41 3 8 -28 114 -68 236 -94 282
-90 278 -240 278 -71 0 -107 4 -114 13 -5 6 -31 98 -57 202 -25 105 -51 201
-58 213 -22 45 -93 77 -142 65z"/>
</g>
</svg>
