<?xml version="1.0" standalone="no"?>
<!DOCTYPE svg PUBLIC "-//W3C//DTD SVG 20010904//EN"
 "http://www.w3.org/TR/2001/REC-SVG-20010904/DTD/svg10.dtd">
<svg version="1.0" xmlns="http://www.w3.org/2000/svg"
 width="180.000000pt" height="154.000000pt" viewBox="0 0 180.000000 154.000000"
 preserveAspectRatio="xMidYMid meet">
<metadata>
Created by potrace 1.10, written by Peter Selinger 2001-2011
</metadata>
<g transform="translate(0.000000,154.000000) scale(0.100000,-0.100000)"
fill="#000000" stroke="none">
<path d="M660 1292 c-40 -20 -80 -83 -80 -129 0 -83 68 -153 150 -153 62 0
128 76 130 149 0 48 -44 120 -86 137 -43 18 -71 17 -114 -4z"/>
<path d="M830 1028 c-128 -59 -153 -72 -175 -94 -28 -28 -47 -89 -41 -130 3
-16 10 -65 17 -109 7 -44 18 -92 25 -107 13 -25 72 -78 87 -78 4 0 31 -11 61
-25 80 -37 116 -30 116 21 0 19 -45 64 -64 64 -3 0 -30 11 -60 25 -42 19 -56
32 -65 56 -14 40 -14 89 -1 89 6 0 10 -8 10 -18 0 -30 31 -50 102 -67 65 -15
98 -13 98 7 0 5 14 30 31 55 29 41 31 51 26 99 -4 42 -3 51 7 41 24 -25 56
-76 56 -90 0 -14 -34 -106 -51 -139 -24 -47 11 -109 50 -88 39 21 97 188 87
252 -8 50 -118 212 -163 240 -37 23 -97 22 -153 -4z"/>
<path d="M465 553 c-11 -3 -30 -17 -42 -32 -22 -25 -23 -34 -23 -183 0 -148 1
-158 20 -168 28 -15 56 -4 64 23 3 12 6 52 6 88 0 72 5 79 61 79 l29 0 0 94
c0 76 -3 95 -16 100 -18 7 -69 6 -99 -1z"/>
<path d="M1332 552 c-9 -6 -12 -33 -10 -98 l3 -89 38 -6 c20 -3 40 -8 43 -11
3 -4 6 -40 7 -82 2 -87 18 -113 61 -102 l26 6 1 133 c1 189 0 199 -25 225 -24
25 -119 41 -144 24z"/>
<path d="M680 430 c0 -27 4 -59 9 -72 5 -13 20 -58 32 -101 24 -81 43 -103 79
-92 37 12 35 47 -11 188 -23 71 -34 88 -64 107 -18 11 -35 20 -39 20 -3 0 -6
-22 -6 -50z"/>
<path d="M1167 451 c-24 -21 -38 -47 -51 -93 -9 -34 -22 -73 -27 -86 -13 -32
-11 -86 3 -100 31 -31 71 1 88 70 5 18 13 49 19 68 24 85 29 116 24 142 -7 35
-14 35 -56 -1z"/>
</g>
</svg>
