<?xml version="1.0" standalone="no"?>
<!DOCTYPE svg PUBLIC "-//W3C//DTD SVG 20010904//EN"
 "http://www.w3.org/TR/2001/REC-SVG-20010904/DTD/svg10.dtd">
<svg version="1.0" xmlns="http://www.w3.org/2000/svg"
 width="164.000000pt" height="150.000000pt" viewBox="0 0 164.000000 150.000000"
 preserveAspectRatio="xMidYMid meet">
<metadata>
Created by potrace 1.10, written by Peter Selinger 2001-2011
</metadata>
<g transform="translate(0.000000,150.000000) scale(0.100000,-0.100000)"
fill="#000000" stroke="none">
<path d="M960 1313 c-95 -49 -109 -184 -27 -261 31 -29 109 -35 151 -12 39 20
76 88 76 137 0 102 -114 179 -200 136z"/>
<path d="M764 1051 c-39 -18 -57 -39 -161 -190 -26 -38 -32 -119 -12 -168 6
-15 15 -37 20 -48 4 -11 13 -37 20 -57 7 -20 23 -42 36 -49 19 -10 26 -9 43 6
11 10 20 26 20 36 0 18 -23 88 -39 119 -24 46 -23 80 6 125 39 62 54 62 31 -1
-11 -30 -8 -37 32 -103 23 -39 46 -74 51 -77 4 -2 39 2 76 11 70 16 113 45
113 77 0 10 5 18 11 18 14 0 5 -80 -12 -111 -5 -11 -48 -38 -94 -59 -83 -39
-102 -59 -89 -94 12 -30 39 -37 81 -20 140 58 186 94 199 152 13 63 15 77 24
149 17 134 -7 175 -142 237 -73 35 -154 66 -167 66 -3 0 -24 -9 -47 -19z"/>
<path d="M243 526 l-28 -24 -3 -155 c-4 -167 3 -197 41 -197 38 0 47 19 47 96
0 98 3 104 56 104 l44 0 0 100 0 100 -64 0 c-54 0 -70 -4 -93 -24z"/>
<path d="M1162 453 l3 -98 45 -5 45 -5 3 -85 c3 -91 12 -110 48 -110 39 0 46
29 42 197 l-3 155 -28 24 c-23 20 -39 24 -93 24 l-65 0 3 -97z"/>
<path d="M500 427 c0 -24 9 -73 20 -108 11 -35 26 -82 32 -104 15 -52 26 -65
53 -65 36 0 48 23 40 76 -3 26 -10 56 -15 68 -4 11 -14 41 -21 66 -14 50 -63
110 -91 110 -15 0 -18 -8 -18 -43z"/>
<path d="M993 438 c-22 -24 -37 -59 -57 -128 -14 -53 -26 -105 -26 -116 0 -26
19 -44 46 -44 26 0 37 13 52 65 6 22 21 69 32 104 26 84 27 151 2 151 -10 0
-32 -15 -49 -32z"/>
</g>
</svg>
