<?xml version="1.0" standalone="no"?>
<!DOCTYPE svg PUBLIC "-//W3C//DTD SVG 20010904//EN"
 "http://www.w3.org/TR/2001/REC-SVG-20010904/DTD/svg10.dtd">
<svg version="1.0" xmlns="http://www.w3.org/2000/svg"
 width="184.000000pt" height="158.000000pt" viewBox="0 0 184.000000 158.000000"
 preserveAspectRatio="xMidYMid meet">
<metadata>
Created by potrace 1.10, written by Peter Selinger 2001-2011
</metadata>
<g transform="translate(0.000000,158.000000) scale(0.050000,-0.050000)"
fill="#000000" stroke="none">
<path d="M2473 2912 c-138 -139 -104 -373 68 -462 190 -99 420 118 355 334
-60 203 -281 269 -423 128z"/>
<path d="M2088 2381 c-154 -69 -240 -186 -314 -431 -17 -55 -58 -172 -91 -260
-197 -529 -191 -482 -83 -590 l80 -80 321 0 c383 0 379 2 438 -184 119 -370
157 -492 181 -571 29 -93 46 -100 166 -58 133 46 139 10 -118 789 -89 268
-139 304 -427 304 -103 0 -181 8 -181 19 0 11 98 217 219 459 237 478 239 485
128 582 -81 71 -189 78 -319 21z"/>
<path d="M873 2273 l-77 -21 11 -91 c6 -50 20 -127 30 -171 10 -44 39 -174 63
-290 24 -115 51 -241 60 -280 8 -38 30 -141 49 -228 104 -485 296 -617 888
-607 l353 5 6 135 6 135 -328 0 c-511 0 -600 55 -671 410 -14 66 -34 161 -45
210 -29 125 -52 232 -79 360 -107 515 -88 483 -266 433z"/>
</g>
</svg>
