<?xml version="1.0" standalone="no"?>
<!DOCTYPE svg PUBLIC "-//W3C//DTD SVG 20010904//EN"
 "http://www.w3.org/TR/2001/REC-SVG-20010904/DTD/svg10.dtd">
<svg version="1.0" xmlns="http://www.w3.org/2000/svg"
 width="160.000000pt" height="154.000000pt" viewBox="0 0 160.000000 154.000000"
 preserveAspectRatio="xMidYMid meet">
<metadata>
Created by potrace 1.10, written by Peter Selinger 2001-2011
</metadata>
<g transform="translate(0.000000,154.000000) scale(0.100000,-0.100000)"
fill="#000000" stroke="none">
<path d="M765 1451 c-46 -28 -65 -63 -65 -122 0 -117 116 -180 202 -108 74 60
74 158 0 218 -43 36 -91 41 -137 12z"/>
<path d="M350 1115 c-51 -13 -57 -26 -41 -91 11 -43 18 -74 41 -184 6 -30 15
-74 20 -97 14 -59 26 -117 41 -188 25 -120 87 -210 175 -255 47 -24 59 -25
247 -28 l198 -3 -3 68 -3 68 -180 5 c-99 3 -189 9 -200 14 -57 26 -92 91 -120
226 -8 41 -24 116 -35 165 -11 50 -29 133 -39 185 -30 145 -23 136 -101 115z"/>
<path d="M741 1108 c-13 -7 -34 -26 -45 -41 -19 -26 -22 -49 -30 -252 -9 -210
-8 -225 10 -255 40 -69 57 -74 247 -80 l172 -5 31 -95 c18 -52 46 -142 64
-200 18 -58 37 -109 41 -114 10 -11 110 25 116 42 3 7 -27 111 -66 231 -92
279 -88 274 -244 281 l-112 5 -5 212 -5 213 -31 31 c-36 36 -103 49 -143 27z"/>
</g>
</svg>
